<svg width="23" height="23" viewBox="0 0 23 23" fill="none" xmlns="http://www.w3.org/2000/svg">
<g clip-path="url(#clip0_1212_995)">
<path d="M8.62502 21.0834C9.15429 21.0834 9.58335 20.6543 9.58335 20.125C9.58335 19.5957 9.15429 19.1667 8.62502 19.1667C8.09575 19.1667 7.66669 19.5957 7.66669 20.125C7.66669 20.6543 8.09575 21.0834 8.62502 21.0834Z" stroke="black" stroke-width="2" stroke-linecap="round" stroke-linejoin="round"/>
<path d="M19.1666 21.0834C19.6959 21.0834 20.125 20.6543 20.125 20.125C20.125 19.5957 19.6959 19.1667 19.1666 19.1667C18.6374 19.1667 18.2083 19.5957 18.2083 20.125C18.2083 20.6543 18.6374 21.0834 19.1666 21.0834Z" stroke="black" stroke-width="2" stroke-linecap="round" stroke-linejoin="round"/>
<path d="M0.958313 0.958313H4.79165L7.35998 13.7904C7.44761 14.2316 7.68764 14.6279 8.03804 14.91C8.38845 15.1921 8.8269 15.3419 9.27665 15.3333H18.5916C19.0414 15.3419 19.4798 15.1921 19.8302 14.91C20.1807 14.6279 20.4207 14.2316 20.5083 13.7904L22.0416 5.74998H5.74998" stroke="black" stroke-width="2" stroke-linecap="round" stroke-linejoin="round"/>
</g>
<defs>
<clipPath id="clip0_1212_995">
<rect width="23" height="23" fill="white"/>
</clipPath>
</defs>
</svg>
